<svg width="101" height="32" viewBox="0 0 101 32" fill="none" xmlns="http://www.w3.org/2000/svg">
<path d="M0 16C0 7.16344 7.12745 0 15.9196 0C24.7118 0 31.8392 7.16344 31.8392 16C31.8392 24.8366 24.7118 32 15.9196 32C7.12745 32 0 24.8366 0 16Z" fill="url(#paint0_linear_415_27195)"/>
<mask id="mask0_415_27195" style="mask-type:alpha" maskUnits="userSpaceOnUse" x="0" y="0" width="32" height="32">
<path d="M0 16C0 7.16344 7.12745 0 15.9196 0C24.7118 0 31.8392 7.16344 31.8392 16C31.8392 24.8366 24.7118 32 15.9196 32C7.12745 32 0 24.8366 0 16Z" fill="url(#paint1_linear_415_27195)"/>
</mask>
<g mask="url(#mask0_415_27195)">
<path d="M30.219 -0.679904C31.1398 -1.47008 32.5649 -1.04818 32.9124 0.117488L45.0196 40.7258C45.4935 42.3154 43.6358 43.5631 42.3558 42.5149L11.9471 17.6122C11.1363 16.9483 11.1221 15.7083 11.9174 15.0258L30.219 -0.679904Z" fill="url(#paint2_linear_415_27195)"/>
<path d="M35.3129 0.156441C36.2061 -0.441984 37.4209 -0.0539576 37.8064 0.952886L51.7642 37.4052C52.3353 38.8966 50.7122 40.2741 49.3449 39.4584L13.1815 17.8846C12.1207 17.2517 12.0809 15.7227 13.1073 15.035L35.3129 0.156441Z" fill="url(#paint3_linear_415_27195)"/>
<path d="M41.3585 2.57141C42.3239 2.11481 43.4624 2.6692 43.7042 3.71364L50.3129 32.2605C50.6326 33.6415 49.2151 34.7772 47.9468 34.1562L15.0439 18.0457C13.7787 17.4262 13.7909 15.6099 15.0643 15.0077L41.3585 2.57141Z" fill="url(#paint4_linear_415_27195)"/>
</g>
<path d="M58.1397 7.79412V24.9778H55.0175L47.5791 14.1625H47.4539V24.9778H43.8391V7.79412H47.0115L54.3914 18.601H54.5416V7.79412H58.1397Z" fill="#4640DE"/>
<path d="M61.0595 24.9778V12.09H64.6159V24.9778H61.0595ZM62.8461 10.4287C62.3174 10.4287 61.8638 10.2525 61.4853 9.90013C61.1124 9.54213 60.926 9.11422 60.926 8.61639C60.926 8.12415 61.1124 7.70183 61.4853 7.34943C61.8638 6.99144 62.3174 6.81244 62.8461 6.81244C63.3748 6.81244 63.8256 6.99144 64.1985 7.34943C64.577 7.70183 64.7662 8.12415 64.7662 8.61639C64.7662 9.11422 64.577 9.54213 64.1985 9.90013C63.8256 10.2525 63.3748 10.4287 62.8461 10.4287Z" fill="#4640DE"/>
<path d="M75.6878 19.4904V12.09H79.2442V24.9778H75.8298V22.6368H75.6962C75.4068 23.392 74.9254 23.9989 74.2519 24.4576C73.5841 24.9162 72.7687 25.1456 71.8059 25.1456C70.9488 25.1456 70.1947 24.9498 69.5435 24.5582C68.8923 24.1667 68.3831 23.6101 68.0158 22.8885C67.654 22.167 67.4703 21.3028 67.4648 20.2959V12.09H71.0211V19.6582C71.0267 20.419 71.2299 21.0203 71.6306 21.4622C72.0313 21.9041 72.5684 22.125 73.2418 22.125C73.6703 22.125 74.0711 22.0271 74.4439 21.8314C74.8168 21.63 75.1174 21.3335 75.3456 20.942C75.5793 20.5504 75.6934 20.0666 75.6878 19.4904Z" fill="#4640DE"/>
<path d="M82.1557 24.9778V7.79412H85.712V14.2548H85.8206C85.9764 13.908 86.2018 13.5556 86.4968 13.1976C86.7973 12.834 87.1869 12.5319 87.6655 12.2914C88.1497 12.0453 88.7508 11.9222 89.4688 11.9222C90.4038 11.9222 91.2664 12.1683 92.0567 12.6606C92.8471 13.1472 93.4787 13.8828 93.9518 14.8673C94.4249 15.8462 94.6614 17.074 94.6614 18.5507C94.6614 19.9882 94.4304 21.2021 93.9685 22.1921C93.5121 23.1766 92.8888 23.9234 92.0985 24.4324C91.3137 24.9358 90.4344 25.1875 89.4604 25.1875C88.7703 25.1875 88.1831 25.0729 87.6989 24.8435C87.2203 24.6142 86.8279 24.3261 86.5218 23.9793C86.2157 23.6269 85.982 23.2717 85.8206 22.9137H85.662V24.9778H82.1557ZM85.6369 18.5339C85.6369 19.3002 85.7427 19.9687 85.9542 20.5392C86.1656 21.1098 86.4717 21.5545 86.8725 21.8733C87.2732 22.1865 87.7602 22.3432 88.3334 22.3432C88.9122 22.3432 89.402 22.1838 89.8027 21.8649C90.2034 21.5405 90.5067 21.093 90.7127 20.5224C90.9242 19.9463 91.0299 19.2835 91.0299 18.5339C91.0299 17.79 90.9269 17.1355 90.721 16.5705C90.5151 16.0056 90.2118 15.5637 89.8111 15.2448C89.4103 14.926 88.9178 14.7666 88.3334 14.7666C87.7546 14.7666 87.2648 14.9204 86.8641 15.2281C86.469 15.5357 86.1656 15.972 85.9542 16.537C85.7427 17.1019 85.6369 17.7676 85.6369 18.5339Z" fill="#4640DE"/>
<path d="M97.0344 24.9778V12.09H100.591V24.9778H97.0344ZM98.821 10.4287C98.2922 10.4287 97.8386 10.2525 97.4602 9.90013C97.0873 9.54213 96.9008 9.11422 96.9008 8.61639C96.9008 8.12415 97.0873 7.70183 97.4602 7.34943C97.8386 6.99144 98.2922 6.81244 98.821 6.81244C99.3497 6.81244 99.8005 6.99144 100.173 7.34943C100.552 7.70183 100.741 8.12415 100.741 8.61639C100.741 9.11422 100.552 9.54213 100.173 9.90013C99.8005 10.2525 99.3497 10.4287 98.821 10.4287Z" fill="#4640DE"/>
<defs>
<linearGradient id="paint0_linear_415_27195" x1="0" y1="0" x2="31.9996" y2="31.8388" gradientUnits="userSpaceOnUse">
<stop stop-color="#4640DE"/>
<stop offset="0.9998" stop-color="#074CD1"/>
<stop offset="0.9999" stop-color="#12213E" stop-opacity="0.015625"/>
<stop offset="1" stop-color="#1044A8"/>
</linearGradient>
<linearGradient id="paint1_linear_415_27195" x1="0" y1="0" x2="31.9996" y2="31.8388" gradientUnits="userSpaceOnUse">
<stop stop-color="#12213E"/>
<stop offset="0.9998" stop-color="#074CD1"/>
<stop offset="0.9999" stop-color="#12213E" stop-opacity="0.015625"/>
<stop offset="1" stop-color="#1952C1"/>
</linearGradient>
<linearGradient id="paint2_linear_415_27195" x1="28.7062" y1="4.30176" x2="28.7062" y2="31.4882" gradientUnits="userSpaceOnUse">
<stop stop-color="white" stop-opacity="0.6"/>
<stop offset="1" stop-color="white" stop-opacity="0"/>
</linearGradient>
<linearGradient id="paint3_linear_415_27195" x1="32.6992" y1="4.74989" x2="32.6992" y2="29.3669" gradientUnits="userSpaceOnUse">
<stop stop-color="white" stop-opacity="0.6"/>
<stop offset="1" stop-color="white" stop-opacity="0"/>
</linearGradient>
<linearGradient id="paint4_linear_415_27195" x1="32.7604" y1="6.31875" x2="32.7604" y2="26.0478" gradientUnits="userSpaceOnUse">
<stop stop-color="white" stop-opacity="0.6"/>
<stop offset="1" stop-color="white" stop-opacity="0"/>
</linearGradient>
</defs>
</svg>
