<svg width="150" height="48" viewBox="0 0 150 48" fill="none" xmlns="http://www.w3.org/2000/svg">
<path d="M0 24C0 10.7452 10.7272 0 23.9598 0C37.1924 0 47.9196 10.7452 47.9196 24C47.9196 37.2548 37.1924 48 23.9598 48C10.7272 48 0 37.2548 0 24Z" fill="url(#paint0_linear_415_21807)"/>
<mask id="mask0_415_21807" style="mask-type:alpha" maskUnits="userSpaceOnUse" x="0" y="0" width="48" height="48">
<path d="M0 24C0 10.7452 10.7272 0 23.9598 0C37.1924 0 47.9196 10.7452 47.9196 24C47.9196 37.2548 37.1924 48 23.9598 48C10.7272 48 0 37.2548 0 24Z" fill="url(#paint1_linear_415_21807)"/>
</mask>
<g mask="url(#mask0_415_21807)">
<path d="M45.4812 -1.01986C46.867 -2.20511 49.0118 -1.57227 49.5348 0.176233L67.7568 61.0887C68.4701 63.4732 65.6742 65.3447 63.7477 63.7724L17.981 26.4184C16.7607 25.4224 16.7393 23.5625 17.9364 22.5386L45.4812 -1.01986Z" fill="url(#paint2_linear_415_21807)"/>
<path d="M53.1477 0.234662C54.4919 -0.662976 56.3203 -0.0809363 56.9005 1.42933L77.9077 56.1079C78.7672 58.3449 76.3243 60.4111 74.2666 59.1876L19.8388 26.8269C18.2422 25.8776 18.1822 23.5841 19.7271 22.5524L53.1477 0.234662Z" fill="url(#paint3_linear_415_21807)"/>
<path d="M62.2467 3.85712C63.6997 3.17222 65.4132 4.0038 65.7771 5.57046L75.7235 48.3907C76.2047 50.4622 74.0712 52.1659 72.1625 51.2344L22.6419 27.0685C20.7377 26.1392 20.756 23.4149 22.6726 22.5115L62.2467 3.85712Z" fill="url(#paint4_linear_415_21807)"/>
</g>
<path d="M85.4428 11.6912V37.4667H80.7437L69.5486 21.2437H69.3601V37.4667H63.9197V11.6912H68.6942L79.8013 27.9016H80.0275V11.6912H85.4428Z" fill="#4640DE"/>
<path d="M89.8373 37.4667V18.1351H95.1898V37.4667H89.8373ZM92.5261 15.6431C91.7304 15.6431 91.0477 15.3788 90.4781 14.8502C89.9169 14.3132 89.6363 13.6714 89.6363 12.9246C89.6363 12.1863 89.9169 11.5528 90.4781 11.0242C91.0477 10.4872 91.7304 10.2187 92.5261 10.2187C93.3219 10.2187 94.0004 10.4872 94.5616 11.0242C95.1312 11.5528 95.416 12.1863 95.416 12.9246C95.416 13.6714 95.1312 14.3132 94.5616 14.8502C94.0004 15.3788 93.3219 15.6431 92.5261 15.6431Z" fill="#4640DE"/>
<path d="M111.854 29.2357V18.1351H117.206V37.4667H112.067V33.9553H111.866C111.431 35.088 110.706 35.9984 109.693 36.6864C108.687 37.3744 107.46 37.7184 106.011 37.7184C104.721 37.7184 103.586 37.4247 102.606 36.8374C101.626 36.2501 100.86 35.4152 100.307 34.3329C99.7623 33.2505 99.4859 31.9542 99.4775 30.4439V18.1351H104.83V29.4874C104.838 30.6285 105.144 31.5304 105.747 32.1933C106.35 32.8561 107.159 33.1876 108.172 33.1876C108.817 33.1876 109.42 33.0407 109.982 32.7471C110.543 32.445 110.995 32.0003 111.338 31.413C111.69 30.8256 111.862 30.0999 111.854 29.2357Z" fill="#4640DE"/>
<path d="M121.588 37.4667V11.6912H126.941V21.3822H127.104C127.338 20.862 127.678 20.3334 128.122 19.7964C128.574 19.251 129.16 18.7979 129.881 18.4371C130.609 18.068 131.514 17.8834 132.595 17.8834C134.002 17.8834 135.3 18.2526 136.49 18.9909C137.679 19.7209 138.63 20.8242 139.342 22.3009C140.054 23.7693 140.41 25.611 140.41 27.8261C140.41 29.9824 140.062 31.8031 139.367 33.2882C138.68 34.765 137.742 35.8851 136.552 36.6486C135.371 37.4038 134.048 37.7813 132.582 37.7813C131.543 37.7813 130.66 37.6093 129.931 37.2653C129.211 36.9213 128.62 36.4892 128.159 35.969C127.699 35.4404 127.347 34.9076 127.104 34.3706H126.865V37.4667H121.588ZM126.827 27.8009C126.827 28.9504 126.987 29.953 127.305 30.8089C127.623 31.6647 128.084 32.3317 128.687 32.81C129.29 33.2799 130.023 33.5148 130.886 33.5148C131.757 33.5148 132.494 33.2757 133.097 32.7974C133.7 32.3108 134.157 31.6395 134.467 30.7837C134.785 29.9195 134.944 28.9252 134.944 27.8009C134.944 26.685 134.789 25.7033 134.479 24.8558C134.169 24.0084 133.713 23.3456 133.11 22.8673C132.507 22.389 131.765 22.1499 130.886 22.1499C130.015 22.1499 129.278 22.3807 128.674 22.8421C128.08 23.3036 127.623 23.9581 127.305 24.8055C126.987 25.6529 126.827 26.6514 126.827 27.8009Z" fill="#4640DE"/>
<path d="M143.981 37.4667V18.1351H149.334V37.4667H143.981ZM146.67 15.6431C145.874 15.6431 145.192 15.3788 144.622 14.8502C144.061 14.3132 143.78 13.6714 143.78 12.9246C143.78 12.1863 144.061 11.5528 144.622 11.0242C145.192 10.4872 145.874 10.2187 146.67 10.2187C147.466 10.2187 148.144 10.4872 148.706 11.0242C149.275 11.5528 149.56 12.1863 149.56 12.9246C149.56 13.6714 149.275 14.3132 148.706 14.8502C148.144 15.3788 147.466 15.6431 146.67 15.6431Z" fill="#4640DE"/>
<defs>
<linearGradient id="paint0_linear_415_21807" x1="0" y1="0" x2="47.9999" y2="47.9195" gradientUnits="userSpaceOnUse">
<stop stop-color="#4640DE"/>
<stop offset="0.9998" stop-color="#074CD1"/>
<stop offset="0.9999" stop-color="#12213E" stop-opacity="0.015625"/>
<stop offset="1" stop-color="#1044A8"/>
</linearGradient>
<linearGradient id="paint1_linear_415_21807" x1="0" y1="0" x2="47.9999" y2="47.9195" gradientUnits="userSpaceOnUse">
<stop stop-color="#12213E"/>
<stop offset="0.9998" stop-color="#074CD1"/>
<stop offset="0.9999" stop-color="#12213E" stop-opacity="0.015625"/>
<stop offset="1" stop-color="#1952C1"/>
</linearGradient>
<linearGradient id="paint2_linear_415_21807" x1="43.2043" y1="6.45264" x2="43.2043" y2="47.2322" gradientUnits="userSpaceOnUse">
<stop stop-color="white" stop-opacity="0.6"/>
<stop offset="1" stop-color="white" stop-opacity="0"/>
</linearGradient>
<linearGradient id="paint3_linear_415_21807" x1="49.2139" y1="7.12484" x2="49.2139" y2="44.0504" gradientUnits="userSpaceOnUse">
<stop stop-color="white" stop-opacity="0.6"/>
<stop offset="1" stop-color="white" stop-opacity="0"/>
</linearGradient>
<linearGradient id="paint4_linear_415_21807" x1="49.3061" y1="9.47813" x2="49.3061" y2="39.0718" gradientUnits="userSpaceOnUse">
<stop stop-color="white" stop-opacity="0.6"/>
<stop offset="1" stop-color="white" stop-opacity="0"/>
</linearGradient>
</defs>
</svg>
