<svg width="397" height="128" viewBox="0 0 397 128" fill="none" xmlns="http://www.w3.org/2000/svg">
<path d="M0 64C0 28.6538 28.6538 0 64 0C99.3462 0 128 28.6538 128 64C128 99.3462 99.3462 128 64 128C28.6538 128 0 99.3462 0 64Z" fill="url(#paint0_linear_415_21350)"/>
<mask id="mask0_415_21350" style="mask-type:alpha" maskUnits="userSpaceOnUse" x="0" y="0" width="128" height="128">
<path d="M0 64C0 28.6538 28.6538 0 64 0C99.3462 0 128 28.6538 128 64C128 99.3462 99.3462 128 64 128C28.6538 128 0 99.3462 0 64Z" fill="url(#paint1_linear_415_21350)"/>
</mask>
<g mask="url(#mask0_415_21350)">
<path d="M121.486 -2.71962C125.188 -5.88031 130.917 -4.19272 132.314 0.469954L180.988 162.903C182.893 169.262 175.425 174.253 170.279 170.06L48.0295 70.449C44.77 67.7931 44.7129 62.8332 47.9104 60.103L121.486 -2.71962Z" fill="url(#paint2_linear_415_21350)"/>
<path d="M141.965 0.625766C145.555 -1.76794 150.439 -0.21583 151.989 3.81154L208.102 149.621C210.398 155.586 203.873 161.096 198.376 157.834L52.9918 71.5384C48.7271 69.0069 48.567 62.8909 52.6936 60.1398L141.965 0.625766Z" fill="url(#paint3_linear_415_21350)"/>
<path d="M166.269 10.2857C170.15 8.45926 174.727 10.6768 175.699 14.8546L202.268 129.042C203.553 134.566 197.854 139.109 192.756 136.625L60.4792 72.1826C55.3928 69.7046 55.4418 62.4398 60.5612 60.0307L166.269 10.2857Z" fill="url(#paint4_linear_415_21350)"/>
</g>
<path d="M225.491 31.1765V99.9111H212.939L183.036 56.65H182.532V99.9111H168V31.1765H180.753L210.422 74.4042H211.026V31.1765H225.491Z" fill="#4640DE"/>
<path d="M237.23 99.9111V48.3602H251.527V99.9111H237.23ZM244.412 41.715C242.286 41.715 240.463 41.0102 238.941 39.6006C237.442 38.1686 236.693 36.4569 236.693 34.4656C236.693 32.4966 237.442 30.8074 238.941 29.3978C240.463 27.9658 242.286 27.2498 244.412 27.2498C246.537 27.2498 248.35 27.9658 249.849 29.3978C251.37 30.8074 252.131 32.4966 252.131 34.4656C252.131 36.4569 251.37 38.1686 249.849 39.6006C248.35 41.0102 246.537 41.715 244.412 41.715Z" fill="#4640DE"/>
<path d="M296.038 77.9617V48.3602H310.336V99.9111H296.609V90.5474H296.072C294.908 93.568 292.973 95.9956 290.266 97.8303C287.581 99.665 284.303 100.582 280.432 100.582C276.986 100.582 273.955 99.7993 271.337 98.2331C268.719 96.6668 266.672 94.4406 265.195 91.5542C263.741 88.6679 263.002 85.2111 262.98 81.1837V48.3602H277.277V78.633C277.3 81.6759 278.116 84.0812 279.727 85.8487C281.338 87.6163 283.497 88.5001 286.205 88.5001C287.928 88.5001 289.539 88.1086 291.038 87.3255C292.537 86.52 293.745 85.3341 294.662 83.7679C295.602 82.2017 296.061 80.2663 296.038 77.9617Z" fill="#4640DE"/>
<path d="M322.04 99.9111V31.1765H336.338V57.0191H336.774C337.4 55.6319 338.307 54.2223 339.492 52.7904C340.701 51.336 342.267 50.1278 344.191 49.1657C346.138 48.1812 348.554 47.689 351.44 47.689C355.199 47.689 358.667 48.6734 361.845 50.6424C365.022 52.589 367.561 55.5312 369.463 59.4692C371.365 63.3847 372.316 68.2959 372.316 74.2028C372.316 79.9531 371.387 84.8083 369.53 88.7686C367.696 92.7065 365.19 95.6935 362.012 97.7296C358.858 99.7433 355.322 100.75 351.407 100.75C348.632 100.75 346.272 100.292 344.325 99.3742C342.401 98.4568 340.824 97.3045 339.593 95.9173C338.363 94.5077 337.423 93.0869 336.774 91.6549H336.136V99.9111H322.04ZM336.036 74.1357C336.036 77.201 336.461 79.8747 337.311 82.1569C338.161 84.4391 339.392 86.2179 341.003 87.4933C342.614 88.7462 344.571 89.3727 346.876 89.3727C349.203 89.3727 351.172 88.7351 352.783 87.4597C354.394 86.162 355.613 84.372 356.441 82.0898C357.291 79.7852 357.717 77.1339 357.717 74.1357C357.717 71.1599 357.303 68.542 356.475 66.2822C355.647 64.0224 354.427 62.2548 352.817 60.9794C351.206 59.7041 349.225 59.0664 346.876 59.0664C344.549 59.0664 342.58 59.6817 340.969 60.9123C339.381 62.1429 338.161 63.8881 337.311 66.148C336.461 68.4078 336.036 71.0704 336.036 74.1357Z" fill="#4640DE"/>
<path d="M381.856 99.9111V48.3602H396.153V99.9111H381.856ZM389.038 41.715C386.913 41.715 385.089 41.0102 383.568 39.6006C382.068 38.1686 381.319 36.4569 381.319 34.4656C381.319 32.4966 382.068 30.8074 383.568 29.3978C385.089 27.9658 386.913 27.2498 389.038 27.2498C391.164 27.2498 392.976 27.9658 394.475 29.3978C395.997 30.8074 396.757 32.4966 396.757 34.4656C396.757 36.4569 395.997 38.1686 394.475 39.6006C392.976 41.0102 391.164 41.715 389.038 41.715Z" fill="#4640DE"/>
<defs>
<linearGradient id="paint0_linear_415_21350" x1="0" y1="0" x2="128" y2="128" gradientUnits="userSpaceOnUse">
<stop stop-color="#4640DE"/>
<stop offset="0.9998" stop-color="#074CD1"/>
<stop offset="0.9999" stop-color="#12213E" stop-opacity="0.015625"/>
<stop offset="1" stop-color="#1044A8"/>
</linearGradient>
<linearGradient id="paint1_linear_415_21350" x1="0" y1="0" x2="128" y2="128" gradientUnits="userSpaceOnUse">
<stop stop-color="#12213E"/>
<stop offset="0.9998" stop-color="#074CD1"/>
<stop offset="0.9999" stop-color="#12213E" stop-opacity="0.015625"/>
<stop offset="1" stop-color="#1952C1"/>
</linearGradient>
<linearGradient id="paint2_linear_415_21350" x1="115.405" y1="17.207" x2="115.405" y2="125.953" gradientUnits="userSpaceOnUse">
<stop stop-color="white" stop-opacity="0.6"/>
<stop offset="1" stop-color="white" stop-opacity="0"/>
</linearGradient>
<linearGradient id="paint3_linear_415_21350" x1="131.457" y1="18.9996" x2="131.457" y2="117.468" gradientUnits="userSpaceOnUse">
<stop stop-color="white" stop-opacity="0.6"/>
<stop offset="1" stop-color="white" stop-opacity="0"/>
</linearGradient>
<linearGradient id="paint4_linear_415_21350" x1="131.703" y1="25.275" x2="131.703" y2="104.191" gradientUnits="userSpaceOnUse">
<stop stop-color="white" stop-opacity="0.6"/>
<stop offset="1" stop-color="white" stop-opacity="0"/>
</linearGradient>
</defs>
</svg>
