<svg width="199" height="64" viewBox="0 0 199 64" fill="none" xmlns="http://www.w3.org/2000/svg">
<path d="M0 32C0 14.3269 14.3269 0 32 0C49.6731 0 64 14.3269 64 32C64 49.6731 49.6731 64 32 64C14.3269 64 0 49.6731 0 32Z" fill="url(#paint0_linear_415_21373)"/>
<mask id="mask0_415_21373" style="mask-type:alpha" maskUnits="userSpaceOnUse" x="0" y="0" width="64" height="64">
<path d="M0 32C0 14.3269 14.3269 0 32 0C49.6731 0 64 14.3269 64 32C64 49.6731 49.6731 64 32 64C14.3269 64 0 49.6731 0 32Z" fill="url(#paint1_linear_415_21373)"/>
</mask>
<g mask="url(#mask0_415_21373)">
<path d="M60.7434 -1.35981C62.5942 -2.94015 65.4587 -2.09636 66.1573 0.234977L90.494 81.4516C91.4467 84.6309 87.7125 87.1263 85.1396 85.0298L24.0149 35.2245C22.3851 33.8965 22.3566 31.4166 23.9553 30.0515L60.7434 -1.35981Z" fill="url(#paint2_linear_415_21373)"/>
<path d="M70.9827 0.312883C72.778 -0.883969 75.2199 -0.107915 75.9948 1.90577L104.051 74.8105C105.199 77.7931 101.937 80.5481 99.1885 78.9169L26.4963 35.7692C24.3639 34.5035 24.2839 31.4454 26.3471 30.0699L70.9827 0.312883Z" fill="url(#paint3_linear_415_21373)"/>
<path d="M83.1349 5.14282C85.0754 4.22963 87.3639 5.3384 87.8499 7.42728L101.134 64.521C101.777 67.2829 98.9274 69.5545 96.3781 68.3125L30.2398 36.0913C27.6966 34.8523 27.7212 31.2199 30.2808 30.0153L83.1349 5.14282Z" fill="url(#paint4_linear_415_21373)"/>
</g>
<path d="M112.746 15.5883V49.9556H106.47L91.5178 28.325H91.2661V49.9556H84V15.5883H90.3767L105.211 37.2021H105.513V15.5883H112.746Z" fill="#4640DE"/>
<path d="M118.615 49.9556V24.1801H125.763V49.9556H118.615ZM122.206 20.8575C121.143 20.8575 120.231 20.5051 119.471 19.8003C118.721 19.0843 118.346 18.2285 118.346 17.2328C118.346 16.2483 118.721 15.4037 119.471 14.6989C120.231 13.9829 121.143 13.6249 122.206 13.6249C123.269 13.6249 124.175 13.9829 124.924 14.6989C125.685 15.4037 126.066 16.2483 126.066 17.2328C126.066 18.2285 125.685 19.0843 124.924 19.8003C124.175 20.5051 123.269 20.8575 122.206 20.8575Z" fill="#4640DE"/>
<path d="M148.019 38.9809V24.1801H155.168V49.9556H148.304V45.2737H148.036C147.454 46.784 146.487 47.9978 145.133 48.9152C143.79 49.8325 142.151 50.2912 140.216 50.2912C138.493 50.2912 136.977 49.8996 135.668 49.1165C134.359 48.3334 133.336 47.2203 132.598 45.7771C131.87 44.334 131.501 42.6055 131.49 40.5918V24.1801H138.639V39.3165C138.65 40.8379 139.058 42.0406 139.864 42.9244C140.669 43.8082 141.749 44.2501 143.102 44.2501C143.964 44.2501 144.769 44.0543 145.519 43.6627C146.268 43.26 146.872 42.6671 147.331 41.884C147.801 41.1008 148.03 40.1332 148.019 38.9809Z" fill="#4640DE"/>
<path d="M161.02 49.9556V15.5883H168.169V28.5096H168.387C168.7 27.816 169.153 27.1112 169.746 26.3952C170.35 25.668 171.133 25.0639 172.096 24.5828C173.069 24.0906 174.277 23.8445 175.72 23.8445C177.6 23.8445 179.334 24.3367 180.922 25.3212C182.511 26.2945 183.781 27.7656 184.732 29.7346C185.683 31.6924 186.158 34.148 186.158 37.1014C186.158 39.9765 185.694 42.4042 184.765 44.3843C183.848 46.3533 182.595 47.8468 181.006 48.8648C179.429 49.8717 177.661 50.3751 175.703 50.3751C174.316 50.3751 173.136 50.1458 172.163 49.6871C171.201 49.2284 170.412 48.6523 169.797 47.9586C169.181 47.2538 168.711 46.5435 168.387 45.8275H168.068V49.9556H161.02ZM168.018 37.0678C168.018 38.6005 168.23 39.9374 168.655 41.0785C169.081 42.2196 169.696 43.109 170.501 43.7466C171.307 44.3731 172.286 44.6864 173.438 44.6864C174.602 44.6864 175.586 44.3675 176.391 43.7299C177.197 43.081 177.807 42.186 178.221 41.0449C178.646 39.8926 178.858 38.5669 178.858 37.0678C178.858 35.5799 178.651 34.271 178.237 33.1411C177.823 32.0112 177.214 31.1274 176.408 30.4897C175.603 29.852 174.613 29.5332 173.438 29.5332C172.275 29.5332 171.29 29.8409 170.485 30.4562C169.69 31.0715 169.081 31.9441 168.655 33.074C168.23 34.2039 168.018 35.5352 168.018 37.0678Z" fill="#4640DE"/>
<path d="M190.928 49.9556V24.1801H198.077V49.9556H190.928ZM194.519 20.8575C193.456 20.8575 192.544 20.5051 191.784 19.8003C191.034 19.0843 190.659 18.2285 190.659 17.2328C190.659 16.2483 191.034 15.4037 191.784 14.6989C192.544 13.9829 193.456 13.6249 194.519 13.6249C195.582 13.6249 196.488 13.9829 197.238 14.6989C197.998 15.4037 198.379 16.2483 198.379 17.2328C198.379 18.2285 197.998 19.0843 197.238 19.8003C196.488 20.5051 195.582 20.8575 194.519 20.8575Z" fill="#4640DE"/>
<defs>
<linearGradient id="paint0_linear_415_21373" x1="0" y1="0" x2="64" y2="64" gradientUnits="userSpaceOnUse">
<stop stop-color="#4640DE"/>
<stop offset="0.9998" stop-color="#074CD1"/>
<stop offset="0.9999" stop-color="#12213E" stop-opacity="0.015625"/>
<stop offset="1" stop-color="#1044A8"/>
</linearGradient>
<linearGradient id="paint1_linear_415_21373" x1="0" y1="0" x2="64" y2="64" gradientUnits="userSpaceOnUse">
<stop stop-color="#12213E"/>
<stop offset="0.9998" stop-color="#074CD1"/>
<stop offset="0.9999" stop-color="#12213E" stop-opacity="0.015625"/>
<stop offset="1" stop-color="#1952C1"/>
</linearGradient>
<linearGradient id="paint2_linear_415_21373" x1="57.7024" y1="8.60352" x2="57.7024" y2="62.9763" gradientUnits="userSpaceOnUse">
<stop stop-color="white" stop-opacity="0.6"/>
<stop offset="1" stop-color="white" stop-opacity="0"/>
</linearGradient>
<linearGradient id="paint3_linear_415_21373" x1="65.7289" y1="9.49978" x2="65.7289" y2="58.7339" gradientUnits="userSpaceOnUse">
<stop stop-color="white" stop-opacity="0.6"/>
<stop offset="1" stop-color="white" stop-opacity="0"/>
</linearGradient>
<linearGradient id="paint4_linear_415_21373" x1="65.8518" y1="12.6375" x2="65.8518" y2="52.0957" gradientUnits="userSpaceOnUse">
<stop stop-color="white" stop-opacity="0.6"/>
<stop offset="1" stop-color="white" stop-opacity="0"/>
</linearGradient>
</defs>
</svg>
